<svg width="686" height="686" viewBox="0 0 686 686" fill="none" xmlns="http://www.w3.org/2000/svg">
<g filter="url(#filter0_d_6_23)">
<circle cx="343" cy="339" r="339" fill="#3E3636"/>
<circle cx="343" cy="339" r="208.615" fill="#D72323"/>
<circle cx="343" cy="339" r="198.022" fill="black"/>
<path d="M306.952 438.184L273.366 440.96L255.857 431.598L273.366 420.862L306.952 438.184Z" fill="#D72323"/>
<path d="M433.392 431.344L415.878 440.706L382.292 437.935L415.878 420.608L433.392 431.344Z" fill="black"/>
<path d="M438.892 351.797L462.465 310.977L486.029 270.168L462.451 229.348L415.328 229.348L391.75 270.168L368.191 310.977L344.627 351.797V351.787L344.617 351.797L321.053 310.977L297.494 270.168L273.916 229.348H226.793L203.215 270.168L226.779 310.977L250.357 351.797L226.793 392.616L203.229 433.426L226.793 474.245H272.676V476.404L273.916 474.245H415.328L416.568 476.404V474.245H462.451L486.015 433.426L462.451 392.616L438.892 351.797ZM273.366 440.96L255.857 431.598L273.366 420.861L306.952 438.184L273.366 440.96ZM415.878 440.706L382.292 437.935L415.878 420.608L433.392 431.344L415.878 440.706Z" fill="#F5EDED"/>
<path d="M347.738 359.206L330.55 386.71H344.301L347.738 359.206Z" fill="#D72323"/>
<path d="M341.506 409.077L358.694 381.574H344.943L341.506 409.077Z" fill="black"/>
</g>
<defs>
<filter id="filter0_d_6_23" x="0" y="0" width="686" height="686" filterUnits="userSpaceOnUse" color-interpolation-filters="sRGB">
<feFlood flood-opacity="0" result="BackgroundImageFix"/>
<feColorMatrix in="SourceAlpha" type="matrix" values="0 0 0 0 0 0 0 0 0 0 0 0 0 0 0 0 0 0 127 0" result="hardAlpha"/>
<feOffset dy="4"/>
<feGaussianBlur stdDeviation="2"/>
<feComposite in2="hardAlpha" operator="out"/>
<feColorMatrix type="matrix" values="0 0 0 0 0 0 0 0 0 0 0 0 0 0 0 0 0 0 0.25 0"/>
<feBlend mode="normal" in2="BackgroundImageFix" result="effect1_dropShadow_6_23"/>
<feBlend mode="normal" in="SourceGraphic" in2="effect1_dropShadow_6_23" result="shape"/>
</filter>
</defs>
</svg>
